<?xml version="1.0" encoding="UTF-8"?>
<svg id="Layer_2" data-name="Layer 2" xmlns="http://www.w3.org/2000/svg" viewBox="0 0 643.26 176.3">
  <defs>
    <style>
      .cls-1 {
        fill: #20454d;
      }

      .cls-2 {
        fill: #64747c;
      }
    </style>
  </defs>
  <g id="Layer_1-2" data-name="Layer 1">
    <g>
      <rect class="cls-1" width="9.03" height="176.3"/>
      <g>
        <g>
          <path class="cls-2" d="M44.6,149.01l14.66-41.39h4.11l14.66,41.39h-3.51l-14.08-39.67h1.67l-14,39.67h-3.51ZM50.67,135.47h21.27v3.13h-21.27v-3.13Z"/>
          <path class="cls-2" d="M95.71,149.87c-2.93,0-5.41-.72-7.43-2.17-2.02-1.45-3.56-3.41-4.63-5.89-1.06-2.48-1.6-5.28-1.6-8.38s.53-5.83,1.58-8.31c1.05-2.47,2.57-4.43,4.56-5.86,1.98-1.44,4.38-2.16,7.2-2.16s5.34.71,7.33,2.13c1.99,1.42,3.5,3.36,4.51,5.82,1.01,2.46,1.52,5.26,1.52,8.38s-.51,5.89-1.52,8.37c-1.02,2.47-2.49,4.44-4.43,5.89-1.94,1.46-4.3,2.19-7.1,2.19M95.92,146.71c2.32,0,4.25-.58,5.79-1.74,1.54-1.16,2.69-2.74,3.45-4.74.76-2,1.14-4.27,1.14-6.8s-.38-4.82-1.15-6.81c-.77-1.99-1.92-3.55-3.45-4.67-1.53-1.12-3.44-1.68-5.72-1.68s-4.3.58-5.84,1.74c-1.53,1.16-2.67,2.73-3.42,4.71-.75,1.98-1.12,4.22-1.12,6.71s.39,4.77,1.16,6.77c.78,2,1.93,3.59,3.45,4.76,1.52,1.17,3.43,1.75,5.71,1.75M106.29,149.01v-23.92h-.29v-17.48h3.31v41.39h-3.02Z"/>
          <polygon class="cls-2" points="126.33 149.01 115.06 117.96 118.48 117.96 128.08 144.5 137.66 117.96 141.11 117.96 129.84 149.01 126.33 149.01"/>
          <path class="cls-2" d="M158.44,149.87c-3.09,0-5.7-.7-7.85-2.1-2.15-1.4-3.79-3.34-4.92-5.81-1.13-2.47-1.7-5.32-1.7-8.54s.57-6.09,1.72-8.55c1.15-2.46,2.8-4.37,4.96-5.73,2.16-1.36,4.75-2.04,7.77-2.04s5.71.69,7.86,2.08c2.16,1.39,3.79,3.31,4.92,5.76,1.12,2.45,1.68,5.28,1.68,8.48s-.57,6.15-1.69,8.61c-1.13,2.46-2.78,4.38-4.94,5.76-2.17,1.38-4.77,2.07-7.82,2.07M158.44,146.65c3.66,0,6.4-1.22,8.21-3.68,1.81-2.45,2.71-5.63,2.71-9.54s-.91-7.17-2.73-9.54c-1.82-2.38-4.55-3.56-8.19-3.56-2.47,0-4.51.56-6.12,1.68-1.61,1.12-2.81,2.66-3.61,4.63-.8,1.96-1.19,4.23-1.19,6.8,0,3.99.92,7.19,2.77,9.6,1.85,2.41,4.57,3.62,8.15,3.62"/>
          <path class="cls-2" d="M191.73,149.87c-2.93,0-5.41-.72-7.43-2.17-2.02-1.45-3.56-3.41-4.63-5.89-1.06-2.48-1.6-5.28-1.6-8.38s.53-5.83,1.58-8.31c1.05-2.47,2.57-4.43,4.56-5.86,1.98-1.44,4.38-2.16,7.2-2.16s5.34.71,7.33,2.13c1.99,1.42,3.5,3.36,4.51,5.82,1.02,2.46,1.52,5.26,1.52,8.38s-.51,5.89-1.52,8.37c-1.02,2.47-2.49,4.44-4.43,5.89-1.93,1.45-4.3,2.18-7.1,2.18M191.87,163.67c-1.53,0-3.06-.22-4.59-.67-1.52-.45-2.95-1.18-4.27-2.19-1.32-1.01-2.44-2.34-3.36-4.01l2.99-1.78c.94,1.92,2.27,3.29,4,4.11,1.72.82,3.48,1.24,5.26,1.24,2.51,0,4.5-.47,5.97-1.4,1.46-.93,2.51-2.32,3.15-4.17.63-1.85.95-4.14.95-6.88v-8.14h.34v-21.82h3.02v29.95c0,.92-.02,1.8-.06,2.64-.04.84-.13,1.69-.26,2.53-.35,2.4-1.05,4.38-2.13,5.94-1.07,1.56-2.53,2.73-4.36,3.49-1.83.77-4.05,1.15-6.65,1.15M191.93,146.71c2.32,0,4.25-.58,5.79-1.74,1.54-1.16,2.69-2.74,3.45-4.74.76-2,1.14-4.27,1.14-6.8s-.38-4.82-1.15-6.81c-.77-1.99-1.92-3.55-3.45-4.67-1.53-1.12-3.44-1.68-5.72-1.68s-4.3.58-5.84,1.74c-1.53,1.16-2.67,2.73-3.42,4.71-.75,1.98-1.12,4.22-1.12,6.71s.39,4.77,1.16,6.77c.78,2,1.93,3.59,3.45,4.76,1.52,1.17,3.43,1.75,5.71,1.75"/>
          <path class="cls-2" d="M222.92,149.87c-2.4,0-4.38-.42-5.97-1.27-1.58-.84-2.76-1.96-3.55-3.35-.79-1.39-1.18-2.9-1.18-4.53,0-1.76.37-3.24,1.11-4.43.74-1.19,1.73-2.15,2.96-2.87,1.24-.73,2.6-1.27,4.1-1.64,1.71-.38,3.54-.71,5.52-.99,1.97-.28,3.86-.52,5.65-.73,1.79-.21,3.25-.39,4.38-.55l-1.21.72c.08-3.35-.55-5.85-1.88-7.49-1.33-1.64-3.68-2.46-7.03-2.46-2.36,0-4.3.53-5.82,1.6-1.52,1.06-2.59,2.71-3.21,4.93l-3.39-.95c.71-2.82,2.14-4.98,4.28-6.5,2.14-1.51,4.9-2.27,8.25-2.27,2.86,0,5.26.56,7.2,1.67,1.94,1.11,3.3,2.67,4.07,4.69.33.82.55,1.79.66,2.89.12,1.1.17,2.21.17,3.32v19.35h-3.02v-8.17l1.12.29c-.94,2.8-2.58,4.95-4.92,6.47-2.34,1.52-5.11,2.27-8.31,2.27M223.09,146.83c2.11,0,3.96-.38,5.55-1.14,1.59-.76,2.88-1.82,3.86-3.19.99-1.37,1.62-2.99,1.88-4.84.19-1.04.3-2.16.32-3.36.02-1.21.03-2.1.03-2.67l1.44.92c-1.25.15-2.74.32-4.47.49-1.73.17-3.5.38-5.3.63-1.8.25-3.43.56-4.89.95-.9.25-1.81.61-2.72,1.08-.91.47-1.67,1.12-2.27,1.94-.6.82-.9,1.87-.9,3.13,0,.94.23,1.88.7,2.82.47.94,1.25,1.71,2.34,2.33,1.09.61,2.57.92,4.43.92"/>
          <path class="cls-2" d="M258.02,149.87c-2.93,0-5.41-.72-7.43-2.17-2.02-1.45-3.56-3.41-4.63-5.89-1.06-2.48-1.59-5.28-1.59-8.38s.53-5.83,1.58-8.31c1.06-2.47,2.57-4.43,4.56-5.86,1.98-1.44,4.38-2.16,7.2-2.16s5.34.71,7.33,2.13c2,1.42,3.5,3.36,4.51,5.82,1.02,2.46,1.52,5.26,1.52,8.38s-.51,5.89-1.52,8.37c-1.02,2.47-2.49,4.44-4.43,5.89-1.94,1.46-4.3,2.19-7.1,2.19M258.22,146.71c2.32,0,4.25-.58,5.79-1.74,1.54-1.16,2.69-2.74,3.45-4.74.76-2,1.14-4.27,1.14-6.8s-.38-4.82-1.15-6.81c-.77-1.99-1.92-3.55-3.45-4.67-1.53-1.12-3.44-1.68-5.72-1.68s-4.3.58-5.83,1.74c-1.53,1.16-2.67,2.73-3.42,4.71-.75,1.98-1.12,4.22-1.12,6.71s.39,4.77,1.17,6.77c.78,2,1.93,3.59,3.45,4.76,1.52,1.17,3.43,1.75,5.71,1.75M268.6,149.01v-23.92h-.29v-17.48h3.31v41.39h-3.02Z"/>
          <path class="cls-2" d="M292.98,149.87c-3.09,0-5.7-.7-7.85-2.1-2.14-1.4-3.78-3.34-4.91-5.81-1.13-2.47-1.69-5.32-1.69-8.54s.57-6.09,1.72-8.55c1.15-2.46,2.8-4.37,4.96-5.73,2.15-1.36,4.75-2.04,7.77-2.04s5.71.69,7.86,2.08,3.79,3.31,4.92,5.76c1.12,2.45,1.68,5.28,1.68,8.48s-.57,6.15-1.7,8.61c-1.13,2.46-2.78,4.38-4.94,5.76-2.17,1.38-4.77,2.07-7.82,2.07M292.98,146.65c3.66,0,6.4-1.22,8.21-3.68,1.81-2.45,2.72-5.63,2.72-9.54s-.91-7.17-2.73-9.54c-1.82-2.38-4.55-3.56-8.19-3.56-2.47,0-4.51.56-6.13,1.68-1.61,1.12-2.81,2.66-3.61,4.63-.79,1.96-1.19,4.23-1.19,6.8,0,3.99.93,7.19,2.77,9.6,1.85,2.41,4.56,3.62,8.15,3.62"/>
          <path class="cls-2" d="M325.66,149.82c-3.58,0-6.54-.76-8.87-2.27-2.33-1.52-3.77-3.62-4.33-6.33l3.39-.57c.48,1.84,1.61,3.31,3.39,4.4,1.78,1.09,3.97,1.64,6.56,1.64s4.61-.55,6.12-1.64c1.51-1.09,2.27-2.59,2.27-4.48,0-1.04-.23-1.88-.7-2.55-.47-.66-1.39-1.27-2.77-1.82-1.38-.55-3.43-1.21-6.15-1.95-2.87-.76-5.12-1.53-6.74-2.3-1.62-.77-2.76-1.64-3.42-2.62-.66-.98-.99-2.17-.99-3.59,0-1.71.49-3.21,1.47-4.5.98-1.29,2.34-2.3,4.1-3.03,1.75-.73,3.78-1.09,6.08-1.09s4.37.38,6.21,1.13c1.84.76,3.32,1.81,4.45,3.16,1.13,1.35,1.78,2.92,1.95,4.7l-3.39.63c-.33-1.99-1.33-3.57-3.02-4.73-1.69-1.16-3.79-1.75-6.33-1.77-2.39-.04-4.35.44-5.86,1.42-1.52.99-2.27,2.29-2.27,3.9,0,.92.26,1.7.79,2.34.53.64,1.46,1.23,2.8,1.77,1.34.54,3.24,1.11,5.69,1.72,2.99.77,5.32,1.55,7,2.36,1.68.8,2.86,1.75,3.55,2.83.69,1.08,1.04,2.42,1.04,4.01,0,2.87-1.07,5.13-3.21,6.77-2.14,1.64-5.07,2.46-8.81,2.46"/>
        </g>
        <g>
          <path class="cls-1" d="M48.56,83.69V27.29h8.5l19.5,39.95,19.51-39.95h8.5v56.4h-8.81v-36.15l-17.31,36.15h-3.76l-17.27-36.15v36.15h-8.85Z"/>
          <path class="cls-1" d="M116.32,34.97v-8.66h9.44v8.66h-9.44ZM116.32,83.69v-42.3h9.44v42.3h-9.44Z"/>
          <path class="cls-1" d="M132.81,48.8v-7.4h29.49v7.4h-29.49ZM162.3,83.69c-2.79.52-5.53.75-8.21.69-2.68-.07-5.07-.56-7.19-1.49-2.11-.93-3.72-2.4-4.82-4.41-.97-1.83-1.48-3.7-1.53-5.6-.05-1.9-.08-4.06-.08-6.46V29.64h9.4v36.23c0,1.7.02,3.19.06,4.47.04,1.28.31,2.32.8,3.13.94,1.57,2.44,2.44,4.5,2.62,2.06.18,4.41.08,7.05-.31v7.91Z"/>
          <path class="cls-1" d="M172.21,34.97v-8.66h9.44v8.66h-9.44ZM172.21,83.69v-42.3h9.44v42.3h-9.44Z"/>
          <path class="cls-1" d="M211.77,84.87c-4.36,0-8.08-.97-11.16-2.92-3.08-1.94-5.44-4.6-7.07-7.97-1.63-3.37-2.46-7.18-2.49-11.44.03-4.34.88-8.18,2.57-11.53,1.68-3.36,4.08-5.99,7.19-7.91,3.11-1.92,6.8-2.88,11.08-2.88,4.8,0,8.87,1.21,12.2,3.62,3.33,2.42,5.5,5.71,6.52,9.89l-9.4,2.54c-.73-2.27-1.95-4.04-3.64-5.31-1.7-1.27-3.63-1.9-5.8-1.9-2.45,0-4.48.58-6.07,1.74-1.59,1.16-2.77,2.76-3.53,4.8-.76,2.04-1.14,4.35-1.14,6.93,0,4.02.9,7.27,2.7,9.75,1.8,2.48,4.48,3.72,8.03,3.72,2.51,0,4.49-.58,5.93-1.72,1.45-1.15,2.54-2.81,3.27-4.97l9.64,2.16c-1.31,4.31-3.59,7.62-6.85,9.93-3.26,2.31-7.26,3.47-11.99,3.47Z"/>
          <path class="cls-1" d="M255.98,84.87c-4.23,0-7.93-.95-11.08-2.86s-5.61-4.54-7.34-7.89c-1.74-3.35-2.6-7.21-2.6-11.57s.89-8.33,2.66-11.67c1.77-3.34,4.24-5.95,7.4-7.83s6.82-2.82,10.97-2.82,7.96.95,11.12,2.86c3.16,1.91,5.61,4.54,7.36,7.89,1.75,3.36,2.62,7.21,2.62,11.57s-.88,8.26-2.64,11.61c-1.76,3.36-4.22,5.98-7.38,7.87-3.16,1.89-6.85,2.84-11.08,2.84ZM255.98,76.02c3.76,0,6.55-1.25,8.38-3.76,1.83-2.51,2.74-5.74,2.74-9.71s-.93-7.37-2.78-9.81c-1.85-2.44-4.64-3.66-8.34-3.66-2.53,0-4.62.57-6.25,1.7s-2.84,2.72-3.62,4.74c-.78,2.02-1.18,4.37-1.18,7.03,0,4.1.93,7.37,2.8,9.81,1.87,2.44,4.62,3.66,8.24,3.66Z"/>
          <g>
            <path class="cls-1" d="M303.85,83.69V27.29h8.5l19.5,39.95,19.51-39.95h8.5v56.4h-8.81v-36.15l-17.31,36.15h-3.76l-17.27-36.15v36.15h-8.85Z"/>
            <path class="cls-1" d="M382.65,84.87c-3.06,0-5.64-.58-7.76-1.74-2.12-1.16-3.72-2.71-4.8-4.64-1.08-1.93-1.63-4.06-1.63-6.39,0-2.04.34-3.87,1.02-5.5.68-1.63,1.72-3.04,3.13-4.23,1.41-1.19,3.24-2.16,5.48-2.92,1.7-.55,3.69-1.04,5.97-1.49,2.29-.44,4.77-.85,7.44-1.23,2.68-.38,5.48-.79,8.4-1.23l-3.37,1.92c.03-2.92-.63-5.08-1.96-6.46-1.33-1.38-3.58-2.08-6.74-2.08-1.91,0-3.75.45-5.52,1.33-1.78.89-3.02,2.42-3.72,4.58l-8.62-2.7c1.04-3.58,3.03-6.45,5.97-8.62,2.94-2.17,6.9-3.25,11.89-3.25,3.76,0,7.07.61,9.93,1.84,2.86,1.23,4.98,3.24,6.37,6.03.76,1.49,1.21,3.01,1.37,4.56.16,1.55.24,3.25.24,5.07v25.97h-8.26v-9.16l1.37,1.49c-1.91,3.05-4.13,5.29-6.68,6.72-2.55,1.42-5.73,2.13-9.54,2.13ZM384.53,77.35c2.14,0,3.97-.38,5.48-1.14,1.51-.76,2.72-1.68,3.62-2.78.9-1.1,1.51-2.13,1.82-3.09.5-1.2.78-2.58.84-4.13.06-1.55.1-2.81.1-3.78l2.9.86c-2.85.44-5.29.84-7.32,1.18-2.04.34-3.79.66-5.25.96-1.46.3-2.75.63-3.88,1-1.1.39-2.02.85-2.78,1.37-.76.52-1.34,1.12-1.74,1.8-.4.68-.61,1.48-.61,2.39,0,1.04.26,1.97.78,2.76.52.8,1.28,1.43,2.29,1.9,1.01.47,2.25.71,3.74.71Z"/>
            <path class="cls-1" d="M434.31,84.87c-4.36,0-8.08-.97-11.16-2.92-3.08-1.94-5.44-4.6-7.07-7.97-1.63-3.37-2.46-7.18-2.49-11.44.03-4.34.88-8.18,2.57-11.53,1.68-3.36,4.08-5.99,7.19-7.91,3.11-1.92,6.8-2.88,11.08-2.88,4.8,0,8.87,1.21,12.2,3.62s5.5,5.71,6.52,9.89l-9.4,2.54c-.73-2.27-1.95-4.04-3.64-5.31-1.7-1.27-3.63-1.9-5.8-1.9-2.45,0-4.48.58-6.07,1.74-1.59,1.16-2.77,2.76-3.53,4.8-.76,2.04-1.14,4.35-1.14,6.93,0,4.02.9,7.27,2.7,9.75,1.8,2.48,4.48,3.72,8.03,3.72,2.51,0,4.49-.58,5.93-1.72,1.45-1.15,2.54-2.81,3.27-4.97l9.64,2.16c-1.31,4.31-3.59,7.62-6.85,9.93-3.26,2.31-7.26,3.47-11.99,3.47Z"/>
            <path class="cls-1" d="M460.94,83.69V27.29h8.42v29.69h1.14v26.71h-9.56ZM490.28,83.69v-20.37c0-1.33-.09-2.81-.27-4.43-.18-1.62-.61-3.18-1.27-4.68-.67-1.5-1.66-2.74-2.98-3.7-1.32-.97-3.1-1.45-5.35-1.45-1.2,0-2.39.2-3.56.59-1.17.39-2.24,1.07-3.19,2.02-.95.95-1.72,2.26-2.29,3.92-.57,1.66-.86,3.78-.86,6.37l-5.6-2.39c0-3.6.7-6.87,2.1-9.79,1.4-2.92,3.45-5.26,6.17-6.99,2.72-1.74,6.06-2.61,10.03-2.61,3.13,0,5.72.52,7.76,1.57s3.66,2.38,4.86,4c1.2,1.62,2.09,3.34,2.66,5.17s.95,3.56,1.12,5.19.26,2.96.26,3.97v23.62h-9.56Z"/>
            <path class="cls-1" d="M521.85,84.87c-3.06,0-5.64-.58-7.76-1.74-2.12-1.16-3.72-2.71-4.8-4.64-1.08-1.93-1.63-4.06-1.63-6.39,0-2.04.34-3.87,1.02-5.5.68-1.63,1.72-3.04,3.13-4.23,1.41-1.19,3.24-2.16,5.48-2.92,1.7-.55,3.69-1.04,5.97-1.49,2.29-.44,4.77-.85,7.44-1.23,2.68-.38,5.48-.79,8.4-1.23l-3.37,1.92c.03-2.92-.63-5.08-1.96-6.46-1.33-1.38-3.58-2.08-6.74-2.08-1.91,0-3.75.45-5.52,1.33-1.78.89-3.02,2.42-3.72,4.58l-8.62-2.7c1.04-3.58,3.03-6.45,5.97-8.62,2.94-2.17,6.9-3.25,11.89-3.25,3.76,0,7.07.61,9.93,1.84,2.86,1.23,4.98,3.24,6.37,6.03.76,1.49,1.21,3.01,1.37,4.56.16,1.55.24,3.25.24,5.07v25.97h-8.26v-9.16l1.37,1.49c-1.91,3.05-4.13,5.29-6.68,6.72-2.55,1.42-5.73,2.13-9.54,2.13ZM523.73,77.35c2.14,0,3.97-.38,5.48-1.14,1.51-.76,2.72-1.68,3.62-2.78.9-1.1,1.51-2.13,1.82-3.09.5-1.2.78-2.58.84-4.13.06-1.55.1-2.81.1-3.78l2.9.86c-2.85.44-5.29.84-7.32,1.18-2.04.34-3.79.66-5.25.96s-2.75.63-3.88,1c-1.1.39-2.02.85-2.78,1.37-.76.52-1.34,1.12-1.74,1.8-.4.68-.61,1.48-.61,2.39,0,1.04.26,1.97.78,2.76.52.8,1.28,1.43,2.29,1.9,1.01.47,2.25.71,3.74.71Z"/>
            <path class="cls-1" d="M572.1,84.87c-3.89,0-7.29-.98-10.18-2.94-2.9-1.96-5.14-4.62-6.74-7.99-1.59-3.37-2.39-7.17-2.39-11.4s.8-8.1,2.41-11.46c1.61-3.36,3.88-6,6.84-7.95,2.95-1.94,6.42-2.92,10.42-2.92s7.4.97,10.12,2.92c2.73,1.95,4.8,4.6,6.21,7.97,1.41,3.37,2.11,7.18,2.11,11.44s-.7,8-2.11,11.38c-1.41,3.38-3.51,6.05-6.31,8.01-2.79,1.96-6.25,2.94-10.38,2.94ZM573.54,76.41c2.53,0,4.58-.58,6.13-1.74,1.55-1.16,2.69-2.79,3.41-4.87.72-2.09,1.08-4.51,1.08-7.25s-.36-5.19-1.08-7.27c-.72-2.08-1.84-3.7-3.35-4.86-1.51-1.16-3.47-1.74-5.87-1.74-2.53,0-4.62.62-6.27,1.86-1.65,1.24-2.86,2.91-3.64,5.01-.78,2.1-1.18,4.43-1.18,6.99s.38,4.93,1.16,7.03c.77,2.1,1.95,3.77,3.54,4.99,1.59,1.23,3.62,1.84,6.07,1.84ZM584.16,83.69v-29.69h-1.18v-26.71h9.52v56.4h-8.34Z"/>
            <path class="cls-1" d="M622.15,84.87c-4.23,0-7.93-.95-11.08-2.86s-5.61-4.54-7.34-7.89c-1.74-3.35-2.6-7.21-2.6-11.57s.89-8.33,2.66-11.67c1.77-3.34,4.24-5.95,7.4-7.83s6.82-2.82,10.97-2.82,7.96.95,11.12,2.86c3.16,1.91,5.61,4.54,7.36,7.89,1.75,3.36,2.62,7.21,2.62,11.57s-.88,8.26-2.64,11.61c-1.76,3.36-4.22,5.98-7.38,7.87-3.16,1.89-6.85,2.84-11.08,2.84ZM622.15,76.02c3.76,0,6.55-1.25,8.38-3.76,1.83-2.51,2.74-5.74,2.74-9.71s-.93-7.37-2.78-9.81c-1.85-2.44-4.64-3.66-8.34-3.66-2.53,0-4.62.57-6.25,1.7s-2.84,2.72-3.62,4.74c-.78,2.02-1.18,4.37-1.18,7.03,0,4.1.93,7.37,2.8,9.81,1.87,2.44,4.62,3.66,8.24,3.66Z"/>
          </g>
        </g>
      </g>
    </g>
  </g>
</svg>